<?xml version="1.0" encoding="UTF-8"?>
<svg xmlns="http://www.w3.org/2000/svg" xmlns:xlink="http://www.w3.org/1999/xlink" width="100px" height="25px" viewBox="0 0 100 25" version="1.1">
	<g>
		<path d="M7.05,0.00 L7.23,0.00 C7.27,0.00 7.30,0.00 7.33,0.00 L7.54,0.00 C7.64,0.00 7.76,0.00 7.88,0.00 L8.13,0.00 C8.27,0.00 8.41,0.00 8.55,0.00 L8.86,0.00 C9.13,0.00 9.42,0.00 9.73,0.00 L10.12,0.00 C10.33,0.01 10.54,0.01 10.76,0.01 L11.22,0.01 C11.30,0.01 11.38,0.01 11.46,0.01 L11.96,0.01 C12.05,0.01 12.13,0.01 12.22,0.01 L13.05,0.01 C13.15,0.01 13.25,0.01 13.34,0.01 L15.27,0.01 C15.38,0.01 15.50,0.01 15.62,0.01 L16.35,0.01 C16.47,0.01 16.60,0.01 16.72,0.01 L18.75,0.01 L19.16,0.01 L19.96,0.01 C20.09,0.01 20.22,0.01 20.34,0.01 L21.08,0.01 C21.43,0.01 21.77,0.01 22.10,0.01 L22.73,0.01 C22.83,0.01 22.93,0.00 23.03,0.00 L23.61,0.00 C23.89,0.00 24.15,0.00 24.40,0.00 L25.12,0.00 C25.20,0.00 25.27,0.00 25.35,0.00 L26.87,0.00 C26.92,0.00 26.97,0.00 27.02,0.00 L27.32,0.00 C28.85,0.01 29.35,0.02 29.75,0.07 L29.82,0.08 L29.96,0.10 C30.01,0.10 30.06,0.11 30.11,0.12 C31.02,0.26 31.99,0.68 32.54,1.17 C33.14,1.71 33.38,2.03 33.45,2.11 C33.74,2.49 34.21,3.40 34.31,4.34 C34.31,4.36 34.31,4.38 34.31,4.40 L34.32,4.46 L34.33,4.53 L34.33,4.58 C34.35,4.84 34.36,5.29 34.36,6.72 L34.37,7.00 C34.37,7.05 34.37,7.10 34.37,7.15 L34.37,7.47 C34.37,7.52 34.37,7.58 34.37,7.64 L34.37,8.79 C34.37,8.86 34.37,8.94 34.37,9.01 L34.37,10.22 C34.37,10.31 34.37,10.40 34.37,10.49 L34.37,12.28 C34.37,12.38 34.37,12.49 34.37,12.61 L34.37,13.66 C34.37,13.78 34.37,13.90 34.37,14.03 L34.36,14.80 C34.36,14.93 34.36,15.06 34.36,15.20 L34.36,15.61 C34.36,16.48 34.36,17.15 34.36,17.70 L34.36,18.25 C34.36,19.54 34.41,19.90 34.68,20.71 C34.83,21.15 35.16,21.83 35.48,22.19 C35.67,22.41 35.81,22.61 36.60,23.13 C36.91,23.33 37.96,23.71 37.82,24.33 C37.78,24.49 37.56,24.79 37.26,24.89 C37.15,24.92 36.99,24.93 36.67,24.94 L36.39,24.94 C35.86,24.93 35.01,24.92 33.57,24.92 C33.52,24.92 33.46,24.92 33.37,24.92 L32.91,24.92 C30.90,24.91 25.37,24.90 20.52,24.90 L19.65,24.90 C19.50,24.90 19.36,24.90 19.22,24.89 L15.35,24.89 C15.24,24.89 15.13,24.89 15.02,24.90 L14.41,24.90 C13.24,24.90 12.43,24.90 12.17,24.91 C11.46,24.92 11.43,24.97 11.01,24.70 C10.56,24.42 10.01,24.14 9.17,22.83 C8.84,22.32 8.22,20.82 8.12,20.19 C8.04,19.73 8.02,19.57 8.02,18.17 L8.02,17.72 C8.02,17.66 8.02,17.60 8.02,17.55 L8.02,16.06 C8.02,15.98 8.02,15.89 8.02,15.81 L8.02,14.96 C8.02,14.86 8.02,14.76 8.02,14.65 C8.01,11.96 8.01,10.66 8.00,9.31 L8.00,7.99 C8.01,7.05 8.01,5.91 8.02,4.23 C8.02,3.56 8.15,2.10 6.91,1.49 C6.44,1.25 5.65,1.25 5.49,1.13 C5.18,0.89 4.96,0.10 5.70,0.01 C5.71,0.01 5.72,0.01 5.73,0.01 L5.76,0.01 L5.79,0.00 L5.81,0.00 C5.84,0.00 5.88,0.00 5.93,0.00 L5.98,0.00 C5.99,0.00 5.99,0.00 6.00,0.00 L6.97,0.00 C7.00,0.00 7.03,0.00 7.05,0.00 Z M17.03,14.33 C16.47,14.33 15.98,14.53 15.56,14.92 C15.15,15.31 14.95,15.78 14.95,16.32 C14.95,16.86 15.15,17.33 15.56,17.72 C15.98,18.11 16.47,18.31 17.03,18.31 C17.60,18.31 18.09,18.11 18.50,17.72 C18.91,17.33 19.12,16.86 19.12,16.32 C19.12,15.78 18.91,15.31 18.50,14.92 C18.09,14.53 17.60,14.33 17.03,14.33 Z M15.95,4.61 C15.69,4.84 15.56,5.12 15.56,5.45 C15.56,5.77 15.68,6.05 15.92,6.29 C16.16,6.53 16.46,6.66 16.81,6.70 C18.09,6.82 19.33,7.15 20.53,7.68 C21.72,8.21 22.81,8.95 23.78,9.88 C24.76,10.81 25.53,11.85 26.09,12.99 C26.65,14.13 26.99,15.31 27.12,16.53 C27.15,16.87 27.30,17.15 27.55,17.38 C27.80,17.61 28.09,17.72 28.42,17.72 C28.77,17.72 29.07,17.60 29.30,17.36 C29.54,17.11 29.64,16.82 29.61,16.48 C29.48,14.95 29.08,13.49 28.40,12.07 C27.72,10.66 26.77,9.37 25.55,8.20 C24.32,7.03 22.97,6.12 21.49,5.48 C20.01,4.83 18.47,4.44 16.87,4.32 C16.51,4.29 16.20,4.39 15.95,4.61 Z M15.95,9.37 C15.71,9.60 15.59,9.87 15.58,10.20 C15.58,10.52 15.70,10.80 15.93,11.04 C16.17,11.28 16.45,11.43 16.78,11.49 C17.41,11.60 18.02,11.80 18.62,12.09 C19.21,12.38 19.76,12.76 20.26,13.24 C20.76,13.72 21.16,14.24 21.47,14.81 C21.77,15.38 21.98,15.96 22.10,16.56 C22.15,16.88 22.31,17.15 22.56,17.38 C22.81,17.61 23.10,17.72 23.43,17.72 C23.78,17.72 24.08,17.61 24.31,17.37 C24.55,17.14 24.64,16.86 24.59,16.53 C24.46,15.63 24.19,14.75 23.76,13.89 C23.34,13.04 22.76,12.26 22.02,11.56 C21.29,10.86 20.48,10.30 19.59,9.89 C18.70,9.48 17.78,9.22 16.83,9.10 C16.48,9.05 16.19,9.14 15.95,9.37 Z" fill="#FECA3E"/>
		<path d="M3.37,23.69 C3.31,23.57 3.31,23.57 3.30,23.56 C2.94,22.74 2.96,21.92 2.97,21.78 C3.00,20.92 2.99,8.09 2.98,7.74 C2.92,5.69 3.04,5.02 2.76,4.24 C2.32,2.98 0.70,2.94 0.57,2.93 C0.21,2.89 -0.00,2.99 -2.22e-15,2.52 C0.00,1.75 0.14,1.75 0.25,1.72 C0.31,1.71 1.72,1.73 2.36,1.87 C2.70,1.94 3.27,2.21 3.33,2.25 C4.84,3.05 4.94,4.59 4.96,5.61 C4.99,9.23 4.96,9.23 4.97,9.54 C4.99,10.23 4.99,14.54 4.99,14.97 C4.99,17.63 4.93,17.63 5.15,20.29 C5.28,21.98 5.37,23.03 6.45,24.25 C6.84,24.70 7.07,24.75 7.12,24.79 C7.28,24.94 7.16,25.01 6.93,24.99 C6.54,24.97 6.54,24.98 6.15,24.97 C4.46,24.92 4.10,24.97 3.37,23.69 Z" fill="#F23E37"/>
		<path d="M39.94,7.37 C39.94,7.07 40.04,6.82 40.25,6.62 C40.46,6.42 40.73,6.32 41.07,6.32 C41.42,6.32 41.69,6.42 41.90,6.62 C42.11,6.82 42.21,7.07 42.21,7.37 C42.21,7.66 42.11,7.91 41.90,8.11 C41.69,8.31 41.42,8.42 41.07,8.42 C40.73,8.42 40.46,8.31 40.25,8.11 C40.04,7.91 39.94,7.66 39.94,7.37 Z M39.52,15.40 C39.70,15.29 39.83,15.14 39.91,14.95 C39.99,14.76 40.04,14.55 40.04,14.31 L40.04,9.02 C40.13,9.01 40.26,8.98 40.43,8.96 C40.61,8.93 40.78,8.92 40.96,8.92 C41.14,8.92 41.30,8.93 41.45,8.95 C41.59,8.97 41.71,9.02 41.81,9.09 C41.90,9.16 41.98,9.26 42.03,9.38 C42.09,9.50 42.11,9.65 42.11,9.85 L42.11,14.50 C42.11,14.83 42.07,15.12 41.99,15.39 C41.91,15.65 41.79,15.88 41.64,16.07 C41.49,16.26 41.31,16.41 41.09,16.51 C40.88,16.61 40.63,16.67 40.37,16.67 C40.01,16.67 39.73,16.56 39.52,16.36 C39.32,16.15 39.21,15.89 39.21,15.58 L39.52,15.40 Z" fill="#F23E37"/>
		<path d="M48.44,12.91 C48.44,13.50 48.21,13.97 47.74,14.30 C47.28,14.64 46.60,14.80 45.69,14.80 C45.35,14.80 45.03,14.78 44.74,14.73 C44.45,14.69 44.20,14.61 43.99,14.52 C43.78,14.42 43.62,14.30 43.50,14.15 C43.38,14.00 43.32,13.83 43.32,13.63 C43.32,13.44 43.36,13.28 43.44,13.15 C43.53,13.02 43.62,12.92 43.74,12.83 C43.97,12.96 44.24,13.07 44.55,13.16 C44.85,13.26 45.21,13.31 45.61,13.31 C45.86,13.31 46.05,13.28 46.19,13.21 C46.32,13.14 46.39,13.04 46.39,12.93 C46.39,12.82 46.34,12.73 46.24,12.67 C46.14,12.61 45.98,12.56 45.75,12.52 L45.39,12.45 C44.68,12.32 44.15,12.11 43.80,11.82 C43.46,11.54 43.29,11.13 43.29,10.61 C43.29,10.32 43.35,10.06 43.48,9.83 C43.61,9.59 43.79,9.40 44.03,9.24 C44.27,9.09 44.55,8.97 44.88,8.88 C45.21,8.80 45.57,8.75 45.97,8.75 C46.27,8.75 46.56,8.77 46.82,8.82 C47.09,8.86 47.32,8.92 47.51,9.01 C47.71,9.10 47.86,9.21 47.98,9.34 C48.09,9.48 48.15,9.64 48.15,9.83 C48.15,10.00 48.11,10.16 48.04,10.29 C47.97,10.41 47.89,10.52 47.78,10.61 C47.72,10.57 47.62,10.53 47.49,10.48 C47.36,10.44 47.21,10.40 47.06,10.37 C46.91,10.33 46.75,10.30 46.59,10.28 C46.43,10.26 46.29,10.25 46.16,10.25 C45.89,10.25 45.68,10.27 45.53,10.33 C45.39,10.39 45.31,10.48 45.31,10.61 C45.31,10.69 45.35,10.76 45.44,10.82 C45.52,10.87 45.67,10.92 45.90,10.97 L46.28,11.05 C47.06,11.22 47.62,11.46 47.95,11.75 C48.28,12.05 48.44,12.44 48.44,12.91 Z" fill="#F23E37"/>
		<path d="M55.65,11.77 C55.65,12.25 55.57,12.68 55.42,13.06 C55.26,13.44 55.04,13.75 54.76,14.01 C54.48,14.27 54.15,14.46 53.75,14.59 C53.36,14.72 52.93,14.79 52.45,14.79 C51.97,14.79 51.53,14.72 51.14,14.58 C50.75,14.44 50.41,14.24 50.13,13.98 C49.85,13.72 49.63,13.40 49.48,13.03 C49.32,12.66 49.25,12.24 49.25,11.77 C49.25,11.31 49.32,10.90 49.48,10.52 C49.63,10.15 49.85,9.84 50.13,9.57 C50.41,9.31 50.75,9.11 51.14,8.97 C51.53,8.83 51.97,8.76 52.45,8.76 C52.93,8.76 53.36,8.84 53.75,8.98 C54.15,9.12 54.48,9.33 54.76,9.59 C55.04,9.85 55.26,10.16 55.42,10.54 C55.57,10.91 55.65,11.32 55.65,11.77 Z M51.37,11.77 C51.37,12.25 51.47,12.61 51.66,12.86 C51.85,13.11 52.12,13.24 52.46,13.24 C52.80,13.24 53.06,13.11 53.25,12.86 C53.43,12.60 53.52,12.24 53.52,11.77 C53.52,11.31 53.43,10.95 53.24,10.69 C53.05,10.44 52.79,10.32 52.45,10.32 C52.11,10.32 51.84,10.44 51.65,10.69 C51.47,10.95 51.37,11.31 51.37,11.77 Z" fill="#F23E37"/>
		<path d="M60.42,11.01 C60.42,10.77 60.35,10.60 60.21,10.48 C60.07,10.37 59.87,10.32 59.63,10.32 C59.47,10.32 59.31,10.33 59.15,10.37 C58.99,10.41 58.85,10.47 58.74,10.55 L58.74,14.59 C58.66,14.62 58.53,14.64 58.35,14.66 C58.18,14.69 58.00,14.70 57.81,14.70 C57.63,14.70 57.47,14.69 57.33,14.66 C57.19,14.64 57.07,14.59 56.97,14.52 C56.87,14.45 56.79,14.36 56.74,14.24 C56.69,14.12 56.66,13.96 56.66,13.77 L56.66,10.27 C56.66,10.06 56.71,9.89 56.80,9.76 C56.90,9.62 57.02,9.50 57.19,9.39 C57.46,9.21 57.81,9.06 58.23,8.94 C58.65,8.82 59.12,8.76 59.63,8.76 C60.55,8.76 61.26,8.96 61.76,9.34 C62.25,9.73 62.50,10.26 62.50,10.94 L62.50,14.59 C62.42,14.62 62.29,14.64 62.12,14.66 C61.94,14.69 61.76,14.70 61.57,14.70 C61.39,14.70 61.23,14.69 61.09,14.66 C60.95,14.64 60.83,14.59 60.73,14.52 C60.63,14.45 60.56,14.36 60.50,14.24 C60.45,14.12 60.42,13.96 60.42,13.77 L60.42,11.01 Z" fill="#F23E37"/>
		<path d="M63.80,12.44 C63.74,12.35 63.69,12.24 63.64,12.10 C63.59,11.96 63.57,11.81 63.57,11.66 C63.57,11.37 63.64,11.16 63.77,11.03 C63.91,10.90 64.09,10.84 64.31,10.84 L66.93,10.84 C66.97,10.93 67.03,11.04 67.08,11.18 C67.13,11.32 67.16,11.47 67.16,11.62 C67.16,11.91 67.09,12.12 66.95,12.24 C66.81,12.37 66.63,12.44 66.41,12.44 L63.80,12.44 Z" fill="#F23E37"/>
		<path d="M70.88,8.76 C71.37,8.76 71.83,8.83 72.25,8.95 C72.67,9.07 73.03,9.25 73.33,9.50 C73.63,9.75 73.86,10.06 74.04,10.44 C74.21,10.81 74.29,11.26 74.29,11.78 C74.29,12.28 74.22,12.72 74.07,13.09 C73.93,13.46 73.72,13.77 73.45,14.03 C73.18,14.28 72.86,14.47 72.48,14.59 C72.10,14.72 71.68,14.78 71.21,14.78 C70.86,14.78 70.54,14.73 70.24,14.63 L70.24,16.56 C70.16,16.59 70.02,16.61 69.85,16.64 C69.67,16.67 69.48,16.68 69.30,16.68 C69.12,16.68 68.96,16.67 68.81,16.64 C68.67,16.62 68.55,16.57 68.45,16.50 C68.36,16.43 68.28,16.34 68.23,16.22 C68.18,16.10 68.16,15.94 68.16,15.75 L68.16,10.15 C68.16,9.94 68.21,9.77 68.30,9.64 C68.39,9.51 68.52,9.39 68.68,9.28 C68.94,9.12 69.25,9.00 69.63,8.90 C70.00,8.81 70.42,8.76 70.88,8.76 Z M70.91,13.22 C71.75,13.22 72.17,12.74 72.17,11.78 C72.17,11.29 72.06,10.92 71.86,10.68 C71.65,10.44 71.35,10.32 70.96,10.32 C70.80,10.32 70.66,10.33 70.54,10.37 C70.42,10.40 70.31,10.44 70.22,10.49 L70.22,13.05 C70.32,13.10 70.43,13.14 70.54,13.17 C70.66,13.20 70.78,13.22 70.91,13.22 Z" fill="#FFBA00"/>
		<path d="M77.87,13.35 C78.01,13.35 78.16,13.33 78.33,13.30 C78.50,13.28 78.62,13.24 78.70,13.19 L78.70,12.26 L77.82,12.33 C77.59,12.35 77.41,12.39 77.26,12.47 C77.11,12.55 77.04,12.67 77.04,12.82 C77.04,12.98 77.10,13.10 77.23,13.20 C77.36,13.30 77.57,13.35 77.87,13.35 Z M77.77,8.76 C78.21,8.76 78.61,8.81 78.98,8.89 C79.34,8.98 79.65,9.11 79.91,9.28 C80.16,9.46 80.36,9.68 80.50,9.95 C80.64,10.22 80.71,10.53 80.71,10.90 L80.71,13.51 C80.71,13.71 80.65,13.88 80.53,14.00 C80.41,14.13 80.27,14.24 80.11,14.34 C79.58,14.64 78.83,14.79 77.87,14.79 C77.44,14.79 77.05,14.75 76.70,14.67 C76.36,14.60 76.06,14.48 75.81,14.32 C75.56,14.17 75.37,13.97 75.24,13.73 C75.10,13.49 75.04,13.21 75.04,12.89 C75.04,12.35 75.20,11.94 75.54,11.66 C75.87,11.37 76.39,11.19 77.09,11.12 L78.69,10.96 L78.69,10.87 C78.69,10.65 78.59,10.49 78.38,10.39 C78.17,10.29 77.87,10.25 77.48,10.25 C77.17,10.25 76.87,10.28 76.58,10.34 C76.28,10.40 76.02,10.48 75.78,10.57 C75.68,10.50 75.59,10.39 75.51,10.25 C75.44,10.11 75.40,9.96 75.40,9.80 C75.40,9.60 75.45,9.44 75.56,9.32 C75.66,9.20 75.82,9.10 76.03,9.01 C76.26,8.92 76.54,8.86 76.86,8.82 C77.19,8.78 77.49,8.76 77.77,8.76 Z" fill="#FFBA00"/>
		<path d="M84.70,8.76 C85.19,8.76 85.64,8.83 86.06,8.95 C86.48,9.07 86.84,9.25 87.14,9.50 C87.44,9.75 87.68,10.06 87.85,10.44 C88.02,10.81 88.11,11.26 88.11,11.78 C88.11,12.28 88.04,12.72 87.89,13.09 C87.74,13.46 87.53,13.77 87.27,14.03 C87.00,14.28 86.67,14.47 86.29,14.59 C85.92,14.72 85.49,14.78 85.03,14.78 C84.68,14.78 84.35,14.73 84.05,14.63 L84.05,16.56 C83.97,16.59 83.84,16.61 83.66,16.64 C83.48,16.67 83.30,16.68 83.11,16.68 C82.93,16.68 82.77,16.67 82.63,16.64 C82.49,16.62 82.37,16.57 82.27,16.50 C82.17,16.43 82.10,16.34 82.05,16.22 C82.00,16.10 81.98,15.94 81.98,15.75 L81.98,10.15 C81.98,9.94 82.02,9.77 82.12,9.64 C82.21,9.51 82.34,9.39 82.50,9.28 C82.75,9.12 83.07,9.00 83.44,8.90 C83.82,8.81 84.24,8.76 84.70,8.76 Z M84.72,13.22 C85.56,13.22 85.98,12.74 85.98,11.78 C85.98,11.29 85.88,10.92 85.67,10.68 C85.46,10.44 85.16,10.32 84.77,10.32 C84.62,10.32 84.48,10.33 84.36,10.37 C84.24,10.40 84.13,10.44 84.04,10.49 L84.04,13.05 C84.14,13.10 84.24,13.14 84.36,13.17 C84.47,13.20 84.59,13.22 84.72,13.22 Z" fill="#FFBA00"/>
		<path d="M92.26,14.79 C91.78,14.79 91.34,14.73 90.92,14.60 C90.51,14.47 90.15,14.28 89.85,14.02 C89.54,13.77 89.30,13.44 89.13,13.05 C88.95,12.67 88.87,12.21 88.87,11.69 C88.87,11.18 88.95,10.74 89.13,10.37 C89.30,10.00 89.53,9.70 89.82,9.46 C90.10,9.22 90.43,9.05 90.80,8.93 C91.16,8.82 91.54,8.76 91.92,8.76 C92.35,8.76 92.74,8.83 93.10,8.95 C93.45,9.08 93.76,9.25 94.02,9.46 C94.27,9.68 94.47,9.94 94.61,10.25 C94.76,10.55 94.83,10.88 94.83,11.24 C94.83,11.50 94.75,11.70 94.60,11.84 C94.44,11.98 94.22,12.07 93.95,12.11 L90.93,12.54 C91.02,12.80 91.20,12.99 91.48,13.12 C91.76,13.25 92.07,13.31 92.43,13.31 C92.77,13.31 93.08,13.27 93.38,13.19 C93.68,13.11 93.92,13.01 94.11,12.90 C94.24,12.98 94.35,13.09 94.44,13.23 C94.53,13.37 94.57,13.52 94.57,13.67 C94.57,14.02 94.40,14.28 94.06,14.45 C93.80,14.58 93.50,14.67 93.18,14.72 C92.85,14.77 92.55,14.79 92.26,14.79 Z M91.92,10.21 C91.72,10.21 91.56,10.24 91.41,10.30 C91.27,10.37 91.15,10.45 91.06,10.54 C90.98,10.64 90.91,10.75 90.86,10.87 C90.82,10.99 90.79,11.11 90.78,11.24 L92.87,10.91 C92.85,10.75 92.76,10.60 92.60,10.44 C92.45,10.29 92.22,10.21 91.92,10.21 Z" fill="#FFBA00"/>
		<path d="M97.91,14.59 C97.82,14.62 97.70,14.64 97.52,14.66 C97.35,14.69 97.16,14.70 96.98,14.70 C96.80,14.70 96.64,14.69 96.50,14.66 C96.35,14.64 96.23,14.59 96.13,14.52 C96.04,14.45 95.96,14.36 95.91,14.24 C95.86,14.12 95.83,13.96 95.83,13.77 L95.83,10.27 C95.83,10.09 95.86,9.94 95.93,9.81 C96.00,9.68 96.10,9.57 96.23,9.46 C96.36,9.36 96.52,9.27 96.71,9.19 C96.91,9.11 97.11,9.04 97.33,8.97 C97.55,8.91 97.78,8.86 98.02,8.83 C98.25,8.79 98.49,8.78 98.72,8.78 C99.12,8.78 99.42,8.85 99.65,8.99 C99.88,9.14 100,9.37 100,9.70 C100,9.81 99.98,9.91 99.95,10.02 C99.91,10.12 99.87,10.22 99.82,10.30 C99.65,10.30 99.48,10.31 99.30,10.33 C99.12,10.34 98.94,10.37 98.77,10.40 C98.60,10.43 98.44,10.46 98.29,10.50 C98.14,10.53 98.01,10.57 97.91,10.62 L97.91,14.59 Z" fill="#FFBA00"/>
	</g>
</svg>
